<svg width="30" height="30" viewBox="0 0 30 30" fill="none" xmlns="http://www.w3.org/2000/svg">
<path d="M28.6956 13.6956H1.30433C0.58396 13.6956 0 14.2796 0 15C0 15.7203 0.58396 16.3043 1.30433 16.3043H28.6956C29.416 16.3043 29.9999 15.7203 29.9999 15C30 14.2796 29.416 13.6956 28.6956 13.6956Z" fill="white"/>
<path d="M1.30433 7.17389H28.6956C29.416 7.17389 29.9999 6.58993 29.9999 5.86956C29.9999 5.1492 29.416 4.56524 28.6956 4.56524H1.30433C0.58396 4.56524 0 5.1492 0 5.86956C0 6.58993 0.58396 7.17389 1.30433 7.17389Z" fill="white"/>
<path d="M28.6956 22.826H1.30433C0.58396 22.826 0 23.4101 0 24.1304C0 24.8508 0.58396 25.4348 1.30433 25.4348H28.6956C29.416 25.4348 29.9999 24.8508 29.9999 24.1304C30 23.4101 29.416 22.826 28.6956 22.826Z" fill="white"/>
</svg>
